<?xml version="1.0" standalone="no"?>
<!DOCTYPE svg PUBLIC "-//W3C//DTD SVG 20010904//EN"
 "http://www.w3.org/TR/2001/REC-SVG-20010904/DTD/svg10.dtd">
<svg version="1.0" xmlns="http://www.w3.org/2000/svg"
 width="512.000000pt" height="512.000000pt" viewBox="0 0 512.000000 512.000000"
 preserveAspectRatio="xMidYMid meet">
<metadata>
Created by potrace 1.14, written by Peter Selinger 2001-2017
</metadata>
<g transform="translate(0.000000,512.000000) scale(0.100000,-0.100000)"
fill="#000000" stroke="none">
<path d="M0 2560 l0 -2560 2560 0 2560 0 0 2560 0 2560 -2560 0 -2560 0 0
-2560z m2900 1560 c0 -5 -4 -10 -10 -10 -5 0 -10 -7 -10 -15 0 -7 -8 -19 -17
-24 -17 -10 -17 -10 -1 -11 31 0 28 -17 -8 -51 -46 -44 -60 -69 -39 -69 8 0
14 6 13 12 -2 7 7 14 19 16 12 2 27 10 33 18 7 8 21 14 32 14 10 0 29 7 42 15
13 9 37 20 54 24 26 8 31 6 35 -11 5 -16 11 -19 29 -13 13 4 39 8 59 10 19 1
45 8 57 14 13 7 31 9 42 6 16 -5 18 -10 8 -33 -20 -51 -34 -137 -27 -165 6
-24 4 -29 -17 -38 -14 -5 -30 -9 -35 -9 -5 0 -9 -4 -9 -10 0 -15 14 -12 76 15
93 41 96 33 20 -46 -30 -31 -64 -64 -77 -72 -12 -9 -20 -20 -16 -23 4 -4 13
-2 21 5 8 6 18 11 22 10 31 -5 74 3 72 14 -2 7 9 13 25 15 15 2 27 -2 27 -8 0
-7 8 -9 23 -4 12 4 34 7 48 6 35 -3 57 22 33 36 -9 5 -26 7 -38 5 -16 -3 -15
0 7 12 15 9 51 19 80 22 29 3 58 10 65 16 21 17 12 -7 -19 -48 -18 -24 -25
-41 -19 -43 7 -3 16 0 22 6 8 8 15 6 25 -4 8 -8 18 -12 23 -9 5 3 11 -4 15
-15 7 -24 13 -24 39 -5 29 22 39 18 32 -10 -4 -14 -2 -25 4 -25 12 0 50 -36
44 -42 -2 -2 1 -21 7 -42 10 -37 12 -38 46 -31 23 4 38 2 43 -5 5 -7 15 -8 33
-1 24 9 25 8 22 -17 -2 -15 -4 -30 -4 -34 -1 -4 -13 -22 -28 -40 -36 -43 -56
-78 -44 -78 6 0 13 5 16 10 3 6 13 10 22 10 13 0 13 -3 3 -15 -18 -22 0 -18
25 5 12 12 29 18 37 15 14 -6 13 -11 -2 -43 -10 -20 -39 -61 -64 -90 -49 -57
-66 -104 -23 -64 13 12 27 22 33 22 5 0 45 23 89 50 70 43 80 47 83 30 2 -10
-3 -30 -10 -45 -15 -28 -178 -196 -220 -226 -14 -10 -40 -40 -57 -65 -17 -26
-48 -60 -71 -76 -28 -21 -40 -37 -40 -54 l0 -25 33 23 c28 20 61 48 176 149
14 12 51 42 82 66 l58 44 21 -21 c11 -11 27 -20 36 -20 30 0 -10 -84 -46 -95
-11 -3 -20 -10 -20 -14 0 -5 -11 -20 -25 -35 l-24 -26 32 0 c21 0 39 8 50 21
12 14 24 18 35 13 28 -12 56 -6 73 15 17 21 17 21 23 -3 3 -14 3 -32 0 -40 -4
-12 -2 -15 9 -10 8 3 18 1 22 -5 3 -7 -2 -11 -14 -11 -11 0 -22 -9 -26 -20 -4
-11 -10 -18 -15 -15 -18 11 -18 -12 0 -25 18 -13 18 -15 -10 -32 -17 -10 -30
-25 -30 -33 0 -9 -9 -33 -20 -55 -11 -22 -20 -42 -20 -46 0 -7 25 -2 77 14 18
6 32 7 32 4 -3 -22 3 -33 15 -29 11 5 11 -1 -2 -26 -20 -38 -32 -48 -49 -42
-14 5 -16 -8 -7 -43 l7 -23 27 26 c17 16 33 23 43 19 18 -7 23 -24 7 -24 -5 0
-12 0 -15 0 -3 0 -18 -15 -35 -32 -26 -30 -27 -34 -13 -45 9 -7 20 -10 24 -7
14 8 11 -4 -8 -33 -16 -24 -16 -26 0 -38 22 -16 22 -24 0 -19 -11 3 -23 -4
-32 -18 -10 -18 -10 -20 0 -10 7 6 17 12 22 12 5 0 -16 -28 -47 -61 -32 -34
-55 -64 -51 -67 3 -3 11 2 18 11 11 14 15 14 37 2 l25 -15 -22 -6 c-22 -6 -32
-24 -14 -24 19 0 21 -49 4 -69 -10 -10 -49 -54 -88 -96 -38 -42 -95 -96 -125
-120 -36 -28 -61 -57 -72 -84 -15 -38 -15 -41 0 -41 13 0 11 -5 -8 -20 -17
-13 -28 -16 -37 -8 -9 7 -16 3 -25 -18 -14 -32 -46 -63 -65 -64 -17 0 -83 -59
-83 -74 0 -13 -45 -56 -58 -56 -5 0 -19 -20 -31 -45 -21 -43 -30 -49 -58 -46
-6 1 -14 -3 -18 -9 -10 -16 -25 -12 -19 5 4 9 18 22 33 30 16 9 20 14 10 15
-18 0 -75 -57 -66 -67 4 -3 0 -15 -10 -25 -9 -10 -11 -18 -5 -18 6 0 15 8 21
17 5 10 13 14 18 10 9 -10 -32 -47 -52 -47 -8 0 -15 8 -18 18 -3 15 -5 15 -12
-3 -5 -11 -13 -23 -19 -27 -7 -5 -7 -8 2 -8 7 0 10 -4 7 -10 -3 -5 -17 -10
-30 -10 -13 0 -26 -4 -29 -9 -3 -5 -15 -7 -26 -4 -13 4 -20 0 -20 -10 0 -15
-34 -48 -98 -96 -17 -13 -34 -32 -37 -41 -3 -10 -19 -23 -35 -29 -17 -5 -30
-15 -30 -21 0 -9 -57 -50 -71 -50 -3 0 -6 7 -6 15 0 8 4 15 9 15 4 0 8 9 8 20
0 12 9 30 20 42 27 30 25 46 -2 22 -35 -29 -68 -46 -68 -34 0 6 11 15 24 20
29 11 40 26 26 35 -6 4 -8 11 -5 16 4 5 2 9 -3 9 -13 0 -122 -106 -122 -118 0
-6 -6 -9 -14 -6 -7 3 -16 -2 -20 -11 -3 -9 -10 -14 -15 -10 -5 3 -12 1 -16 -5
-4 -6 -11 -8 -16 -4 -6 4 -6 11 2 20 6 7 8 21 5 30 -6 15 -9 15 -34 -2 -28
-18 -82 -72 -79 -79 1 -2 -16 -16 -38 -32 -60 -44 -66 -46 -59 -29 3 9 11 16
16 16 6 0 8 7 4 15 -3 8 -1 15 5 15 5 0 22 11 37 25 15 14 21 25 14 25 -20 0
-14 17 8 23 13 3 20 14 20 28 0 21 -5 19 -47 -23 -27 -25 -58 -49 -70 -52 -12
-4 -35 -20 -51 -37 -25 -26 -31 -28 -41 -15 -7 8 -10 20 -6 26 3 5 8 18 10 27
2 10 7 27 11 38 7 20 7 20 -14 2 -11 -11 -26 -16 -31 -12 -6 3 -11 1 -11 -4 0
-6 -17 -22 -37 -36 -153 -103 -153 -103 -147 -45 4 43 -9 59 -32 39 -8 -6 -17
-9 -20 -6 -3 3 -19 1 -35 -3 -24 -7 -29 -6 -29 10 0 24 -47 36 -69 17 -29 -26
-79 -47 -96 -41 -9 4 -15 15 -13 28 3 19 -1 21 -44 19 -45 -1 -61 8 -38 22 6
4 7 11 4 17 -4 6 -2 8 3 5 13 -8 83 51 83 69 0 6 -7 17 -15 24 -15 13 -21 35
-7 26 11 -6 37 16 46 39 5 15 9 16 15 6 11 -17 51 2 51 24 0 18 -14 19 -41 5
-17 -10 -19 -7 -19 20 0 23 5 30 19 30 13 0 25 14 38 45 10 25 24 45 32 45 20
0 40 31 41 63 0 15 -3 27 -6 27 -13 0 -44 -22 -44 -32 0 -7 4 -7 14 1 22 18
28 -14 7 -33 -22 -20 -31 -20 -46 1 -19 26 -42 9 -48 -38 -7 -54 -27 -75 -56
-59 -19 10 -29 6 -71 -25 -28 -20 -50 -40 -50 -45 0 -5 -12 -7 -27 -5 -16 2
-33 -1 -40 -7 -18 -15 -33 0 -33 32 0 32 29 100 42 100 4 0 8 10 8 21 0 12 10
38 22 58 l22 36 -24 -20 c-12 -11 -36 -38 -53 -60 -21 -29 -28 -34 -24 -17 7
29 -7 28 -27 -3 -9 -14 -20 -24 -24 -24 -19 3 -26 -2 -13 -10 9 -6 11 -16 7
-27 -7 -17 -8 -17 -16 -3 -10 17 -60 15 -60 -3 0 -5 5 -6 10 -3 5 3 10 2 10
-4 0 -10 -31 -31 -46 -31 -3 0 -1 7 6 15 9 10 9 15 1 15 -16 0 -14 36 4 70 9
17 11 30 6 30 -6 0 -3 16 5 35 9 22 10 35 4 35 -6 0 -8 5 -5 10 3 6 -2 10 -12
10 -35 0 -47 17 -45 60 2 27 -1 39 -8 35 -5 -3 -10 -1 -10 6 0 8 -9 5 -22 -7
-24 -21 -74 -54 -82 -54 -3 0 1 19 9 41 12 34 12 39 1 30 -11 -9 -13 -4 -10
31 1 24 8 44 13 46 6 2 11 8 11 14 0 6 -7 7 -15 4 -21 -8 -31 20 -15 39 9 11
10 18 1 29 -15 17 14 76 37 76 17 0 46 35 47 57 0 7 15 23 34 37 31 23 68 76
53 76 -4 0 -2 4 3 8 15 11 35 49 35 67 0 13 -4 14 -20 5 -11 -6 -20 -8 -20 -5
0 3 -11 -2 -24 -10 -19 -13 -25 -13 -29 -3 -3 9 -21 -2 -53 -32 -62 -57 -112
-92 -126 -88 -5 2 9 17 31 33 49 33 93 88 68 83 -9 -2 -16 2 -16 7 0 6 7 9 15
7 8 -2 14 2 14 7 0 6 19 15 42 21 31 9 38 14 27 21 -12 8 -11 11 4 23 21 16
21 22 1 30 -23 9 -63 -4 -58 -18 5 -14 -36 -36 -67 -36 -11 0 -24 -11 -31 -25
-7 -16 -19 -25 -35 -25 -26 0 -83 -70 -83 -102 0 -14 -6 -19 -22 -16 -17 2
-22 9 -21 26 l3 22 -43 -26 c-23 -15 -50 -33 -59 -41 -15 -14 -18 -13 -23 10
-7 25 13 76 43 110 9 10 11 17 4 17 -16 0 -10 31 11 63 21 32 21 37 2 37 -18
0 -20 17 -2 23 6 2 9 8 5 12 -5 5 -16 0 -27 -9 -10 -10 -21 -14 -24 -9 -6 10
60 146 73 151 12 4 1 32 -12 32 -5 0 -20 8 -32 18 -22 16 -22 20 -10 61 7 23
20 51 29 61 11 12 14 26 10 41 -4 12 -3 19 1 16 5 -3 10 6 10 19 1 15 -2 22
-10 18 -6 -3 3 7 21 23 17 15 40 44 51 63 10 19 29 40 42 47 27 13 57 73 37
73 -15 0 -39 -15 -38 -24 1 -3 1 -10 1 -14 0 -12 -55 -72 -67 -72 -5 0 -24
-16 -41 -36 -18 -20 -36 -33 -40 -30 -4 4 1 12 11 17 9 6 17 15 17 20 0 6 -4
8 -9 5 -5 -4 -4 7 2 24 11 30 27 41 27 18 0 -9 3 -9 13 1 10 10 7 17 -15 36
l-28 24 28 23 c16 13 37 38 47 56 11 17 23 32 28 32 4 0 5 5 2 10 -3 6 -2 10
4 10 6 0 15 9 21 21 11 20 11 20 -15 3 -14 -9 -28 -14 -32 -11 -9 10 26 57 42
57 14 0 19 11 16 37 -1 7 7 16 17 22 10 5 27 28 38 50 10 23 24 41 31 41 6 0
14 9 18 19 3 11 13 25 22 33 15 12 16 10 9 -16 l-7 -30 19 25 c14 16 17 28 10
36 -10 13 22 53 45 53 19 1 70 47 59 54 -5 3 -20 -3 -32 -14 -15 -13 -31 -18
-43 -14 -13 4 -17 2 -13 -5 4 -6 2 -11 -3 -11 -6 0 -11 7 -11 15 0 18 -16 20
-26 4 -3 -6 -1 -15 6 -19 10 -6 9 -15 -6 -41 -11 -18 -25 -34 -33 -37 -11 -4
-10 1 2 19 18 25 23 54 8 45 -5 -3 -8 5 -7 19 0 14 6 25 11 25 6 0 26 14 45
30 19 16 41 30 48 30 22 0 53 40 47 61 -5 15 -2 19 15 19 25 0 126 98 122 117
-3 15 35 15 67 0 19 -10 26 -8 40 9 9 12 23 23 31 27 10 3 8 6 -7 6 -12 1 -24
-3 -28 -9 -3 -5 -12 -7 -19 -4 -19 7 -15 64 7 97 9 14 17 30 17 35 0 5 6 15
14 21 11 9 15 9 18 -1 3 -8 14 -3 31 16 19 20 27 24 27 13 0 -8 -12 -25 -27
-37 -16 -12 -22 -19 -15 -15 6 3 12 1 12 -4 0 -18 -28 -12 -33 7 -3 13 -6 11
-15 -11 -7 -16 -19 -35 -28 -44 -19 -19 -10 -30 11 -13 13 11 14 10 9 -5 -5
-13 -4 -16 4 -11 7 4 10 17 6 32 -7 29 6 31 26 5 15 -22 32 -19 23 4 -3 10 1
15 12 15 20 0 74 36 93 62 7 10 19 18 25 18 13 0 41 38 42 55 0 6 10 10 22 10
11 0 25 3 29 8 4 4 1 7 -6 7 -11 0 -11 3 -2 12 8 8 15 8 27 -2 13 -11 14 -10
9 4 -4 12 0 16 15 16 23 0 28 15 9 24 -7 3 -4 5 7 3 25 -2 135 42 135 54 0 5
7 9 15 9 9 0 18 7 22 16 3 8 12 13 19 10 8 -3 14 -1 14 3 0 5 9 7 20 4 11 -3
27 0 35 7 8 7 15 9 15 4 0 -5 4 -3 9 5 5 7 14 10 20 7 6 -4 9 -12 6 -17 -3 -5
1 -6 8 -3 8 3 17 15 20 26 3 12 10 17 17 13 6 -4 22 3 36 16 27 25 90 50 109
43 7 -3 13 -16 13 -30 0 -19 -9 -28 -37 -40 -20 -8 -38 -16 -41 -16 -12 -2
-29 -35 -30 -54 0 -12 -7 -27 -15 -34 -16 -13 -21 -40 -7 -40 15 1 40 26 43
45 3 12 13 20 26 21 13 1 46 19 75 41 74 56 83 60 66 34 -19 -31 2 -47 29 -22
12 11 23 24 24 28 8 16 86 63 106 63 12 0 25 5 29 11 3 6 20 9 36 7 16 -3 31
-1 34 4 7 11 24 10 24 -2z m565 -280 c-3 -5 -10 -10 -16 -10 -5 0 -9 5 -9 10
0 6 7 10 16 10 8 0 12 -4 9 -10z m-55 -4 c0 -2 -7 -6 -15 -10 -8 -3 -15 -1
-15 4 0 6 7 10 15 10 8 0 15 -2 15 -4z m-1603 -41 c8 -9 13 -18 11 -21 -3 -2
-13 5 -23 16 -21 23 -11 27 12 5z m83 1 c0 -3 -4 -8 -10 -11 -5 -3 -10 -1 -10
4 0 6 5 11 10 11 6 0 10 -2 10 -4z m-490 -360 c0 -3 -4 -8 -10 -11 -5 -3 -10
-1 -10 4 0 6 5 11 10 11 6 0 10 -2 10 -4z m12 -48 c-6 -6 -15 -8 -19 -4 -4 4
-1 11 7 16 19 12 27 3 12 -12z m-230 -240 c-7 -7 -12 -8 -12 -2 0 14 12 26 19
19 2 -3 -1 -11 -7 -17z m2892 -57 c3 -5 0 -11 -8 -14 -15 -6 -26 1 -26 15 0
11 27 10 34 -1z m66 -179 c0 -13 -12 -22 -22 -16 -10 6 -1 24 13 24 5 0 9 -4
9 -8z m-40 -212 c0 -11 -4 -20 -9 -20 -14 0 -23 18 -16 30 10 17 25 11 25 -10z
m-3080 -141 c-7 -11 -14 -18 -17 -15 -3 3 0 12 7 21 18 21 23 19 10 -6z m14
-197 c-10 -2 -23 -8 -28 -13 -18 -17 -26 -9 -15 15 10 22 14 23 37 13 23 -11
24 -12 6 -15z m3029 -137 c-3 -9 -8 -14 -10 -11 -3 3 -2 9 2 15 9 16 15 13 8
-4z m27 -10 c-7 -9 -15 -13 -19 -10 -3 3 1 10 9 15 21 14 24 12 10 -5z m40
-63 c0 -5 -6 -16 -13 -27 -10 -13 -16 -15 -21 -6 -4 6 -2 18 4 26 13 16 30 20
30 7z m-2810 -101 c0 -16 -28 -20 -34 -5 -4 9 1 14 14 14 11 0 20 -4 20 -9z
m2440 -355 c0 -3 -4 -8 -10 -11 -5 -3 -10 -1 -10 4 0 6 5 11 10 11 6 0 10 -2
10 -4z m-74 -83 c-10 -10 -19 5 -10 18 6 11 8 11 12 0 2 -7 1 -15 -2 -18z
m-61 -33 c-10 -11 -20 -18 -23 -15 -7 6 18 35 31 35 5 0 2 -9 -8 -20z m-39
-29 c-4 -5 -1 -12 4 -14 6 -3 5 -4 -2 -3 -7 2 -22 -4 -32 -13 -19 -16 -19 -15
-1 12 15 24 45 41 31 18z m40 -18 c-10 -10 -19 5 -10 18 6 11 8 11 12 0 2 -7
1 -15 -2 -18z m-76 -63 c0 -15 -7 -20 -24 -20 -16 0 -27 -7 -31 -20 -4 -11
-19 -28 -33 -38 -15 -9 -33 -22 -40 -29 -16 -16 -38 -17 -47 -3 -3 6 3 10 14
10 28 0 101 67 94 86 -3 8 4 17 18 23 37 15 49 13 49 -9z m-310 -247 c-62 -54
-82 -63 -34 -16 36 35 55 49 73 52 3 1 -15 -16 -39 -36z"/>
<path d="M2200 3839 c0 -5 5 -7 10 -4 6 3 10 8 10 11 0 2 -4 4 -10 4 -5 0 -10
-5 -10 -11z"/>
<path d="M3062 3757 c-13 -15 1 -42 17 -33 13 8 15 46 2 46 -5 0 -13 -6 -19
-13z"/>
<path d="M2174 3718 l-19 -23 23 19 c21 18 27 26 19 26 -2 0 -12 -10 -23 -22z"/>
<path d="M2513 3685 c-42 -24 -192 -111 -435 -252 -73 -42 -153 -88 -179 -102
-25 -14 -111 -64 -192 -111 l-147 -84 0 -577 0 -576 83 -48 c45 -27 102 -59
127 -73 25 -14 126 -72 225 -130 99 -57 216 -125 260 -150 44 -25 129 -74 189
-110 l109 -64 41 23 c23 12 95 53 161 92 66 38 165 95 220 127 55 32 154 89
220 127 66 38 173 100 238 137 l117 68 0 577 0 578 -122 70 c-68 39 -269 155
-448 258 -179 103 -346 200 -373 216 -26 16 -48 29 -50 29 -1 -1 -21 -12 -44
-25z m-173 -380 c66 -34 132 -78 180 -122 l37 -32 63 53 c34 29 94 70 133 91
58 32 83 39 143 43 62 4 78 1 108 -17 72 -45 107 -178 88 -334 -7 -51 -15
-101 -18 -113 -5 -18 4 -24 72 -47 181 -62 294 -165 294 -268 0 -108 -128
-215 -352 -292 -14 -5 -15 -11 -5 -44 6 -21 11 -94 12 -163 0 -115 -2 -129
-27 -182 -42 -89 -110 -121 -210 -98 -67 15 -155 64 -236 130 l-63 50 -62 -50
c-34 -28 -99 -69 -143 -92 -99 -49 -184 -57 -244 -23 -74 43 -111 181 -89 333
20 141 24 130 -55 158 -103 36 -208 105 -253 167 -33 45 -38 58 -38 108 0 50
4 62 38 105 48 62 143 123 248 160 l81 29 -6 35 c-4 19 -11 69 -16 111 -19
146 19 282 90 321 51 28 156 21 230 -17z"/>
<path d="M2147 3259 c-37 -22 -57 -87 -56 -189 1 -95 17 -196 32 -193 11 2
136 21 187 28 42 6 49 12 110 91 35 46 68 84 72 84 48 0 -106 127 -201 167
-60 24 -115 29 -144 12z"/>
<path d="M2829 3251 c-55 -21 -130 -71 -180 -118 l-37 -35 69 -86 c38 -47 69
-89 69 -93 0 -4 21 -11 48 -14 81 -10 171 -25 186 -31 36 -14 53 246 22 321
-9 21 -24 47 -33 57 -21 23 -83 23 -144 -1z"/>
<path d="M2500 2980 c-29 -33 -50 -60 -48 -60 26 -3 208 -4 208 -1 0 7 -95
121 -102 121 -3 0 -29 -27 -58 -60z"/>
<path d="M2453 2843 l-62 -4 -44 -72 c-24 -40 -60 -103 -81 -140 l-36 -69 41
-76 c23 -42 59 -104 81 -138 36 -59 42 -63 84 -70 67 -10 270 0 287 14 16 14
90 138 131 220 l27 53 -44 82 c-24 45 -60 108 -81 140 -34 53 -40 57 -74 57
-20 0 -66 2 -102 4 -36 2 -93 1 -127 -1z m186 -150 c90 -68 96 -185 12 -256
-61 -51 -161 -40 -216 24 -64 77 -33 204 60 245 39 18 110 12 144 -13z"/>
<path d="M2210 2818 c-35 -5 -66 -11 -69 -13 -5 -6 13 -68 35 -120 l15 -38 49
84 c50 84 56 100 43 98 -5 -1 -37 -6 -73 -11z"/>
<path d="M2822 2822 c9 -25 94 -171 99 -172 9 0 59 149 51 154 -4 2 -29 7 -57
11 -27 3 -61 8 -73 11 -13 3 -22 1 -20 -4z"/>
<path d="M1970 2752 c-127 -52 -211 -118 -226 -176 -14 -56 66 -138 191 -197
127 -59 119 -63 170 68 l43 113 -39 97 c-21 54 -39 104 -39 111 0 18 -28 14
-100 -16z"/>
<path d="M3043 2763 c-3 -10 -21 -57 -39 -105 -19 -48 -34 -91 -34 -95 0 -5
19 -57 42 -116 42 -108 42 -109 71 -103 16 3 66 24 112 47 100 49 175 121 175
168 0 59 -98 141 -233 194 -79 32 -86 32 -94 10z"/>
<path d="M2162 2393 c-35 -91 -38 -86 73 -98 l68 -8 -20 29 c-11 16 -36 58
-56 92 l-35 64 -30 -79z"/>
<path d="M2904 2448 c-3 -12 -24 -51 -46 -86 -21 -35 -37 -66 -34 -69 5 -5
147 15 154 22 7 6 -51 155 -60 155 -3 0 -10 -10 -14 -22z"/>
<path d="M2102 2184 c-15 -73 -15 -211 -1 -255 7 -19 21 -44 32 -56 48 -54
185 -13 316 93 l58 47 -68 84 c-37 46 -72 89 -76 97 -5 8 -47 17 -108 25 -55
6 -109 14 -121 17 -19 5 -22 -1 -32 -52z"/>
<path d="M2864 2221 l-101 -16 -63 -80 c-34 -44 -70 -86 -78 -93 -14 -11 -12
-16 18 -42 117 -100 249 -161 304 -140 60 23 93 122 82 250 -9 103 -18 135
-42 136 -10 1 -65 -6 -120 -15z"/>
<path d="M2475 2168 c86 -103 85 -102 100 -81 8 11 30 39 49 62 20 24 36 45
36 47 0 2 -48 4 -106 4 l-106 0 27 -32z"/>
<path d="M3235 3640 l-20 -9 20 0 c11 0 29 4 40 9 l20 9 -20 0 c-11 0 -29 -4
-40 -9z"/>
<path d="M3165 3624 c-20 -15 -12 -17 19 -5 11 4 15 10 10 13 -5 4 -18 0 -29
-8z"/>
<path d="M3066 3595 c-11 -8 -15 -15 -9 -15 6 0 16 7 23 15 16 19 11 19 -14 0z"/>
<path d="M1605 3461 c3 -5 -2 -16 -10 -24 -17 -17 -20 -47 -5 -47 5 0 7 6 4
14 -3 9 3 20 15 28 25 15 26 24 5 32 -8 3 -13 2 -9 -3z"/>
<path d="M3780 3327 c-8 -7 -24 -24 -35 -37 -16 -21 -14 -20 15 5 19 17 37 31
39 33 2 1 2 4 0 6 -2 2 -11 -1 -19 -7z"/>
<path d="M4045 2560 c3 -5 8 -10 11 -10 2 0 4 5 4 10 0 6 -5 10 -11 10 -5 0
-7 -4 -4 -10z"/>
<path d="M4036 2501 c-4 -7 -5 -15 -2 -18 9 -9 19 4 14 18 -4 11 -6 11 -12 0z"/>
<path d="M4055 2450 c-3 -5 -1 -10 4 -10 6 0 11 5 11 10 0 6 -2 10 -4 10 -3 0
-8 -4 -11 -10z"/>
<path d="M1074 2424 c-4 -14 -2 -30 5 -37 8 -8 11 -7 11 6 0 9 5 17 10 17 6 0
10 9 10 20 0 29 -28 25 -36 -6z"/>
<path d="M4060 2399 c0 -5 5 -7 10 -4 6 3 10 1 10 -4 0 -6 5 -11 11 -11 8 0 8
5 -1 15 -14 17 -30 20 -30 4z"/>
<path d="M1496 2353 c-6 -14 -5 -15 5 -6 7 7 10 15 7 18 -3 3 -9 -2 -12 -12z"/>
<path d="M4040 2299 c0 -5 5 -7 10 -4 6 3 10 8 10 11 0 2 -4 4 -10 4 -5 0 -10
-5 -10 -11z"/>
<path d="M1472 2278 c-29 -14 -23 -32 11 -36 23 -3 27 0 27 22 0 28 -4 30 -38
14z"/>
<path d="M3965 2230 c-3 -5 -1 -10 4 -10 6 0 11 5 11 10 0 6 -2 10 -4 10 -3 0
-8 -4 -11 -10z"/>
<path d="M3952 2121 c-11 -6 -9 -9 6 -13 15 -4 19 -2 15 8 -6 16 -4 16 -21 5z"/>
<path d="M4000 2120 c0 -5 5 -10 10 -10 6 0 10 5 10 10 0 6 -4 10 -10 10 -5 0
-10 -4 -10 -10z"/>
<path d="M1446 1614 c-7 -19 2 -37 15 -29 12 8 12 45 0 45 -5 0 -12 -7 -15
-16z"/>
<path d="M2430 1085 c-7 -9 -8 -15 -2 -15 5 0 12 7 16 15 3 8 4 15 2 15 -2 0
-9 -7 -16 -15z"/>
</g>
</svg>
